<svg width="720" height="760" viewBox="0 0 720 760" fill="none" xmlns="http://www.w3.org/2000/svg">
  <title>SOLE INTHEGROW Stacked Logo</title>
  <desc>Stacked logo for SOLE INTHEGROW with centered symbol and premium wordmark.</desc>
  <defs>
    <linearGradient id="soleRingS" x1="132" y1="95" x2="390" y2="390" gradientUnits="userSpaceOnUse">
      <stop offset="0" stop-color="#E0A33A"/>
      <stop offset="1" stop-color="#C57F18"/>
    </linearGradient>
    <linearGradient id="soleLeafS" x1="200" y1="160" x2="330" y2="360" gradientUnits="userSpaceOnUse">
      <stop offset="0" stop-color="#2D8D68"/>
      <stop offset="1" stop-color="#174B3D"/>
    </linearGradient>
  </defs>
  <path
    d="M260 86C173.291 86 103 156.291 103 243C103 329.709 173.291 400 260 400C321.292 400 374.333 364.866 400.44 313.656"
    stroke="url(#soleRingS)"
    stroke-width="28"
    stroke-linecap="round"
  />
  <circle cx="397" cy="167" r="28" fill="#E0A33A"/>
  <path
    d="M255 353V267C255 238.768 277.768 216 306 216H323"
    stroke="#143D34"
    stroke-width="24"
    stroke-linecap="round"
    stroke-linejoin="round"
  />
  <path
    d="M222 297C187.14 297 159 268.86 159 234V223C193.86 223 222 251.14 222 286V297Z"
    fill="url(#soleLeafS)"
  />
  <path
    d="M261 264C261 225.34 292.34 194 331 194H342C342 232.66 310.66 264 272 264H261Z"
    fill="url(#soleLeafS)"
  />
  <path
    d="M228 408C243.997 417.334 252.387 423.667 261 443C269.613 423.667 278.003 417.334 294 408"
    stroke="#143D34"
    stroke-width="18"
    stroke-linecap="round"
    stroke-linejoin="round"
  />
  <text x="360" y="555" text-anchor="middle" fill="#143D34" font-family="Avenir Next, Montserrat, Poppins, Segoe UI, sans-serif" font-size="124" font-weight="800" letter-spacing="4">SOLE</text>
  <text x="360" y="625" text-anchor="middle" fill="#9D7A32" font-family="Avenir Next, Montserrat, Poppins, Segoe UI, sans-serif" font-size="36" font-weight="700" letter-spacing="9">IN THE GROW</text>
  <path d="M175 653H545" stroke="#D8C29A" stroke-width="4" stroke-linecap="round"/>
</svg>
